<?xml version="1.0" encoding="UTF-8" standalone="no"?>
<svg
   xmlns:dc="http://purl.org/dc/elements/1.1/"
   xmlns:cc="http://creativecommons.org/ns#"
   xmlns:rdf="http://www.w3.org/1999/02/22-rdf-syntax-ns#"
   xmlns:svg="http://www.w3.org/2000/svg"
   xmlns="http://www.w3.org/2000/svg"
   xmlns:sodipodi="http://sodipodi.sourceforge.net/DTD/sodipodi-0.dtd"
   xmlns:inkscape="http://www.inkscape.org/namespaces/inkscape"
   version="1.1"
   id="Capa_1"
   x="0px"
   y="0px"
   width="444.045px"
   height="444.045px"
   viewBox="0 0 444.045 444.045"
   style="enable-background:new 0 0 444.045 444.045;"
   xml:space="preserve"
   sodipodi:docname="site.svg"
   inkscape:version="1.0.1 (3bc2e813f5, 2020-09-07)"><metadata
   id="metadata1649"><rdf:RDF><cc:Work
       rdf:about=""><dc:format>image/svg+xml</dc:format><dc:type
         rdf:resource="http://purl.org/dc/dcmitype/StillImage" /></cc:Work></rdf:RDF></metadata><defs
   id="defs1647" /><sodipodi:namedview
   pagecolor="#000000DE"
   bordercolor="#666666"
   borderopacity="1"
   objecttolerance="10"
   gridtolerance="10"
   guidetolerance="10"
   inkscape:pageopacity="0"
   inkscape:pageshadow="2"
   inkscape:window-width="3440"
   inkscape:window-height="1377"
   id="namedview1645"
   showgrid="false"
   inkscape:zoom="2.2700401"
   inkscape:cx="222.02251"
   inkscape:cy="222.02251"
   inkscape:window-x="-8"
   inkscape:window-y="-8"
   inkscape:window-maximized="1"
   inkscape:current-layer="Capa_1" />
<g
   id="g1612"
   style="fill:#000000DE">
	<path
   d="M422.504,346.229v-68.306h-16.678v-24.856c0-21.863-16.199-39.935-37.254-42.882v-0.798   c0-26.702-21.723-48.426-48.426-48.426h-1.609c-26.699,0-48.426,21.724-48.426,48.426v87.633h-23.641v-93.169   c0-6.083-3.248-11.394-8.096-14.333c5.662-1.667,9.799-6.896,9.799-13.098c0-7.544-6.117-13.661-13.662-13.661h-10.981v-12.727h-17   v12.727h-10.984c-7.545,0-13.66,6.116-13.66,13.661c0,6.202,4.137,11.431,9.799,13.098c-4.848,2.94-8.098,8.25-8.098,14.333v93.169   h-23v-85.596c0-4.458-3.613-8.071-8.07-8.071h-16.412v-87.591c0-16.03-13.041-29.071-29.07-29.071v-1.267   c0-23.608-19.139-42.748-42.748-42.748S21.54,61.817,21.54,85.425v260.805H0v55.139h444.045v-55.139H422.504z M286.256,209.387   c0-17.801,14.48-32.284,32.281-32.284h1.609c17.803,0,32.285,14.483,32.285,32.284v1.559   c-19.059,4.545-33.232,21.673-33.232,42.124v24.855h-16.676v19.098h-16.27v-87.635H286.256z M302.525,313.162v33.067h-16.27   v-33.067H302.525z M270.113,313.162v33.067h-23.641v-33.067H270.113z M144.447,219.496v85.596c0,4.458,3.613,8.071,8.07,8.071   h31.07v33.068h-47.482V219.496H144.447z M107.035,102.834c7.129,0,12.93,5.8,12.93,12.929v87.591h-12.93V102.834z M107.035,219.496   h12.93v126.733h-12.93V219.496z"
   id="path1610"
   style="fill:#000000DE" />
</g>
<g
   id="g1614"
   style="fill:#000000DE">
</g>
<g
   id="g1616"
   style="fill:#000000DE">
</g>
<g
   id="g1618"
   style="fill:#000000DE">
</g>
<g
   id="g1620"
   style="fill:#000000DE">
</g>
<g
   id="g1622"
   style="fill:#000000DE">
</g>
<g
   id="g1624"
   style="fill:#000000DE">
</g>
<g
   id="g1626"
   style="fill:#000000DE">
</g>
<g
   id="g1628"
   style="fill:#000000DE">
</g>
<g
   id="g1630"
   style="fill:#000000DE">
</g>
<g
   id="g1632"
   style="fill:#000000DE">
</g>
<g
   id="g1634"
   style="fill:#000000DE">
</g>
<g
   id="g1636"
   style="fill:#000000DE">
</g>
<g
   id="g1638"
   style="fill:#000000DE">
</g>
<g
   id="g1640"
   style="fill:#000000DE">
</g>
<g
   id="g1642"
   style="fill:#000000DE">
</g>
</svg>
