<?xml version="1.0" encoding="UTF-8" standalone="no"?>
<svg
   xmlns:dc="http://purl.org/dc/elements/1.1/"
   xmlns:cc="http://creativecommons.org/ns#"
   xmlns:rdf="http://www.w3.org/1999/02/22-rdf-syntax-ns#"
   xmlns:svg="http://www.w3.org/2000/svg"
   xmlns="http://www.w3.org/2000/svg"
   xmlns:sodipodi="http://sodipodi.sourceforge.net/DTD/sodipodi-0.dtd"
   xmlns:inkscape="http://www.inkscape.org/namespaces/inkscape"
   width="89.782898mm"
   height="19.765623mm"
   viewBox="0 0 89.782898 19.765623"
   version="1.1"
   id="svg8"
   sodipodi:docname="taurob_logo_white.svg"
   inkscape:version="1.0.1 (3bc2e813f5, 2020-09-07)">
  <sodipodi:namedview
     pagecolor="#ffffff"
     bordercolor="#666666"
     borderopacity="1"
     objecttolerance="10"
     gridtolerance="10"
     guidetolerance="10"
     inkscape:pageopacity="0"
     inkscape:pageshadow="2"
     inkscape:window-width="2560"
     inkscape:window-height="1377"
     id="namedview54"
     showgrid="false"
     inkscape:zoom="3.0706943"
     inkscape:cx="169.66847"
     inkscape:cy="37.352359"
     inkscape:window-x="1093"
     inkscape:window-y="-8"
     inkscape:window-maximized="1"
     inkscape:current-layer="svg8" />
  <defs
     id="defs2">
    <clipPath
       clipPathUnits="userSpaceOnUse"
       id="clipPath853">
      <path
         d="M 0,155.91 H 240.94 V 0 H 0 Z"
         id="path851" />
    </clipPath>
  </defs>
  <metadata
     id="metadata5">
    <rdf:RDF>
      <cc:Work
         rdf:about="">
        <dc:format>image/svg+xml</dc:format>
        <dc:type
           rdf:resource="http://purl.org/dc/dcmitype/StillImage" />
        <dc:title />
      </cc:Work>
    </rdf:RDF>
  </metadata>
  <g
     id="layer1"
     transform="translate(-0.98849764,-1.0307753)"
     style="fill:#ffffff">
    <g
       id="g841"
       transform="matrix(1.3711939,0,0,-1.3711939,-119.3084,117.80535)"
       style="fill:#ffffff">
      <g
         id="g843"
         transform="translate(95.6035,83.1541)"
         style="fill:#ffffff">
        <path
           d="M 0,0 H -2.307 V -5.701 H -4.7 V 0 h -3.172 l 1.539,1.998 h 7.881 z"
           style="fill:#ffffff;fill-opacity:1;fill-rule:nonzero;stroke:none"
           id="path845" />
      </g>
      <g
         id="g847"
         style="fill:#ffffff">
        <g
           id="g849"
           clip-path="url(#clipPath853)"
           style="fill:#ffffff">
          <g
             id="g855"
             transform="translate(97.937,77.4427)"
             style="fill:#ffffff">
            <path
               d="M 0,0 1.442,1.998 H 4.657 L 2.66,4.762 -0.81,0 H -3.768 L 1.166,6.844 C 1.323,7.072 1.54,7.272 1.816,7.443 2.123,7.627 2.418,7.72 2.703,7.72 2.995,7.72 3.291,7.627 3.589,7.443 3.852,7.281 4.066,7.08 4.229,6.844 L 9.046,0 Z"
               style="fill:#ffffff;fill-opacity:1;fill-rule:nonzero;stroke:none"
               id="path857" />
          </g>
          <g
             id="g859"
             transform="translate(116.7437,80.9554)"
             style="fill:#ffffff">
            <path
               d="m 0,0 c 0,-2.334 -1.602,-3.502 -4.806,-3.502 h -0.502 c -3.204,0 -4.806,1.168 -4.806,3.502 v 4.196 h 2.38 V 0 c 0,-0.696 0.307,-1.146 0.919,-1.345 0.328,-0.113 0.998,-0.17 2.009,-0.17 0.805,0 1.377,0.086 1.719,0.257 0.463,0.22 0.693,0.64 0.693,1.26 v 4.197 h 2.392 V 0.002"
               style="fill:#ffffff;fill-opacity:1;fill-rule:nonzero;stroke:none"
               id="path861" />
          </g>
          <g
             id="g863"
             transform="translate(129.7393,77.453)"
             style="fill:#ffffff">
            <path
               d="M 0,0 H -3.47 L -5.799,1.933 H -9.087 V 0 h -2.391 v 3.931 h 6.642 c 0.406,0 0.739,0.06 1.003,0.181 0.333,0.158 0.501,0.388 0.501,0.695 0,0.599 -0.501,0.897 -1.504,0.897 h -6.642 l 1.559,1.997 h 4.857 c 1.205,0 2.18,-0.227 2.925,-0.682 0.841,-0.521 1.261,-1.261 1.261,-2.221 0,-0.542 -0.168,-1.03 -0.507,-1.469 C -1.722,2.89 -2.188,2.554 -2.787,2.321 L 0,0.003"
               style="fill:#ffffff;fill-opacity:1;fill-rule:nonzero;stroke:none"
               id="path865" />
          </g>
          <g
             id="g867"
             transform="translate(141.6445,81.3729)"
             style="fill:#ffffff">
            <path
               d="M 0,0 C 0,-1.125 -0.439,-2.06 -1.32,-2.803 -2.198,-3.545 -3.308,-3.92 -4.646,-3.92 h -2.318 c -1.345,0 -2.458,0.372 -3.337,1.117 -0.878,0.743 -1.317,1.678 -1.317,2.803 0,1.125 0.436,2.036 1.309,2.735 0.873,0.697 1.987,1.046 3.348,1.046 h 2.317 c 1.361,0 2.476,-0.349 3.342,-1.046 C -0.434,2.039 0.003,1.125 0.003,0 Z m -4.646,1.784 h -2.318 c -0.661,0 -1.206,-0.177 -1.635,-0.529 -0.427,-0.352 -0.639,-0.802 -0.639,-1.35 0,-0.548 0.214,-0.992 0.639,-1.328 0.429,-0.339 0.974,-0.507 1.635,-0.507 h 2.318 c 0.661,0 1.206,0.168 1.634,0.507 0.429,0.339 0.64,0.78 0.64,1.328 0,0.548 -0.214,0.998 -0.645,1.35 -0.431,0.352 -0.973,0.529 -1.629,0.529"
               style="fill:#ffffff;fill-opacity:1;fill-rule:nonzero;stroke:none"
               id="path869" />
          </g>
          <g
             id="g871"
             transform="translate(152.5254,81.2533)"
             style="fill:#ffffff">
            <path
               d="M 0,0 C 0.456,-0.412 0.684,-0.875 0.684,-1.388 0.684,-1.764 0.559,-2.122 0.31,-2.456 -0.024,-2.911 -0.523,-3.255 -1.187,-3.491 -1.77,-3.697 -2.418,-3.8 -3.131,-3.8 H -9.55 v 4.795 h 6.652 c 0.201,0 0.385,0.03 0.555,0.087 0.237,0.086 0.354,0.209 0.354,0.374 0,0.163 -0.117,0.285 -0.354,0.363 -0.17,0.057 -0.354,0.087 -0.555,0.087 H -9.55 l 1.613,1.998 h 4.806 c 0.718,0 1.372,-0.106 1.954,-0.32 C -0.521,3.343 -0.027,2.991 0.31,2.527 0.559,2.186 0.684,1.822 0.684,1.437 0.684,0.911 0.456,0.434 0,0.006 Z m -2.895,-1.003 h -4.261 v -0.81 h 4.261 c 0.249,0 0.486,0.024 0.705,0.076 0.328,0.07 0.491,0.181 0.491,0.331 0,0.148 -0.163,0.26 -0.491,0.33 C -2.409,-1.027 -2.646,-1 -2.895,-1"
               style="fill:#ffffff;fill-opacity:1;fill-rule:nonzero;stroke:none"
               id="path873" />
          </g>
          <g
             id="g875"
             transform="translate(90.1089,71.9461)"
             style="fill:#ffffff">
            <path
               d="m 0,0 c 0.349,0 0.497,0.093 0.497,0.336 v 0.212 c 0,0.26 -0.112,0.343 -0.574,0.343 H -1.506 V 0 Z m -1.82,1.147 h 1.855 c 0.67,0 0.776,-0.221 0.776,-0.657 V 0.301 c 0,-0.326 -0.186,-0.416 -0.426,-0.439 V -0.145 C 0.705,-0.202 0.782,-0.368 0.782,-0.58 V -1.173 H 0.487 v 0.51 c 0,0.362 -0.176,0.406 -0.461,0.406 H -1.506 V -1.173 H -1.82 Z"
               style="fill:#ffffff;fill-opacity:1;fill-rule:nonzero;stroke:none"
               id="path877" />
          </g>
          <g
             id="g879"
             transform="translate(95.0171,72.369)"
             style="fill:#ffffff">
            <path
               d="M 0,0 C 0,0.403 -0.244,0.493 -0.545,0.493 H -1.817 C -2.118,0.493 -2.362,0.403 -2.362,0 v -0.871 c 0,-0.404 0.244,-0.494 0.545,-0.494 h 1.272 c 0.301,0 0.545,0.09 0.545,0.494 z m -2.676,-0.118 c 0,0.586 0.199,0.868 0.827,0.868 h 1.336 c 0.628,0 0.827,-0.282 0.827,-0.868 v -0.635 c 0,-0.586 -0.199,-0.868 -0.827,-0.868 h -1.336 c -0.628,0 -0.827,0.282 -0.827,0.868 z"
               style="fill:#ffffff;fill-opacity:1;fill-rule:nonzero;stroke:none"
               id="path881" />
          </g>
          <g
             id="g883"
             transform="translate(99.1885,71.5067)"
             style="fill:#ffffff">
            <path
               d="m 0,0 c 0,0.289 -0.16,0.334 -0.445,0.334 h -1.612 v -0.811 h 1.66 c 0.292,0 0.397,0.106 0.397,0.311 z m -0.089,1.087 c 0,0.211 -0.235,0.243 -0.33,0.243 H -2.057 V 0.59 h 1.621 c 0.17,0 0.347,0.055 0.347,0.285 z m -2.282,0.5 h 1.98 c 0.481,0 0.616,-0.25 0.616,-0.517 V 0.872 C 0.225,0.705 0.131,0.535 -0.15,0.507 V 0.494 C 0.096,0.481 0.314,0.388 0.314,0.035 V -0.24 c 0,-0.323 -0.288,-0.493 -0.673,-0.493 h -2.012 z"
               style="fill:#ffffff;fill-opacity:1;fill-rule:nonzero;stroke:none"
               id="path885" />
          </g>
          <g
             id="g887"
             transform="translate(103.6064,72.369)"
             style="fill:#ffffff">
            <path
               d="M 0,0 C 0,0.403 -0.244,0.493 -0.545,0.493 H -1.817 C -2.118,0.493 -2.362,0.403 -2.362,0 v -0.871 c 0,-0.404 0.244,-0.494 0.545,-0.494 h 1.272 c 0.301,0 0.545,0.09 0.545,0.494 z m -2.676,-0.118 c 0,0.586 0.199,0.868 0.827,0.868 h 1.336 c 0.628,0 0.827,-0.282 0.827,-0.868 v -0.635 c 0,-0.586 -0.199,-0.868 -0.827,-0.868 h -1.336 c -0.628,0 -0.827,0.282 -0.827,0.868 z"
               style="fill:#ffffff;fill-opacity:1;fill-rule:nonzero;stroke:none"
               id="path889" />
          </g>
          <g
             id="g891"
             transform="translate(106.3262,72.8368)"
             style="fill:#ffffff">
            <path
               d="M 0,0 H -1.172 V 0.257 H 1.487 V 0 H 0.314 V -2.063 H 0 Z"
               style="fill:#ffffff;fill-opacity:1;fill-rule:nonzero;stroke:none"
               id="path893" />
          </g>
          <path
             d="m 109.117,73.094 h 0.314 v -2.32 h -0.314 z"
             style="fill:#ffffff;fill-opacity:1;fill-rule:nonzero;stroke:none"
             id="path895" />
          <g
             id="g897"
             transform="translate(110.9248,72.2508)"
             style="fill:#ffffff">
            <path
               d="m 0,0 c 0,0.586 0.199,0.868 0.827,0.868 h 1.201 c 0.571,0 0.728,-0.265 0.728,-0.577 V 0.093 H 2.48 v 0.105 c 0,0.395 -0.243,0.413 -0.532,0.413 H 0.859 c -0.301,0 -0.545,-0.09 -0.545,-0.493 v -0.871 c 0,-0.404 0.244,-0.494 0.545,-0.494 h 1.099 c 0.423,0 0.545,0.09 0.545,0.404 v 0.144 h 0.294 v -0.156 c 0,-0.42 -0.134,-0.648 -0.784,-0.648 H 0.827 C 0.199,-1.503 0,-1.221 0,-0.635 Z"
               style="fill:#ffffff;fill-opacity:1;fill-rule:nonzero;stroke:none"
               id="path899" />
          </g>
          <path
             d="m 117.645,73.094 h 0.313 v -2.32 h -0.313 z"
             style="fill:#ffffff;fill-opacity:1;fill-rule:nonzero;stroke:none"
             id="path901" />
          <g
             id="g903"
             transform="translate(119.4946,73.0936)"
             style="fill:#ffffff">
            <path
               d="M 0,0 H 0.468 L 2.593,-2.038 V 0 H 2.907 V -2.32 H 2.439 L 0.314,-0.282 V -2.32 H 0 Z"
               style="fill:#ffffff;fill-opacity:1;fill-rule:nonzero;stroke:none"
               id="path905" />
          </g>
          <g
             id="g907"
             transform="translate(123.8721,71.5038)"
             style="fill:#ffffff">
            <path
               d="m 0,0 h 0.295 v -0.163 c 0,-0.228 0.122,-0.337 0.513,-0.337 h 0.973 c 0.455,0 0.59,0.097 0.59,0.43 0,0.292 -0.115,0.365 -0.506,0.365 H 1.269 c -0.958,0 -1.272,0.058 -1.272,0.673 0,0.528 0.314,0.647 0.961,0.647 h 0.676 c 0.779,0 0.974,-0.199 0.974,-0.612 V 0.923 H 2.313 C 2.307,1.291 2.269,1.358 1.445,1.358 H 1.112 c -0.606,0 -0.82,-0.031 -0.82,-0.413 0,-0.275 0.086,-0.368 0.576,-0.368 h 0.93 c 0.611,0 0.868,-0.177 0.868,-0.57 v -0.152 c 0,-0.57 -0.468,-0.611 -0.933,-0.611 H 0.862 C 0.403,-0.756 0,-0.676 0,-0.17 Z"
               style="fill:#ffffff;fill-opacity:1;fill-rule:nonzero;stroke:none"
               id="path909" />
          </g>
          <g
             id="g911"
             transform="translate(130.2832,72.494)"
             style="fill:#ffffff">
            <path
               d="m 0,0 c 0,0.275 -0.15,0.343 -0.423,0.343 h -1.521 v -0.894 h 1.547 c 0.25,0 0.397,0.09 0.397,0.33 z m -2.259,0.6 h 1.91 c 0.423,0 0.663,-0.09 0.663,-0.632 0,-0.516 -0.042,-0.776 -0.724,-0.776 h -1.534 v -0.913 h -0.315 z"
               style="fill:#ffffff;fill-opacity:1;fill-rule:nonzero;stroke:none"
               id="path913" />
          </g>
          <g
             id="g915"
             transform="translate(131.9648,73.0936)"
             style="fill:#ffffff">
            <path
               d="M 0,0 H 2.278 V -0.257 H 0.314 v -0.74 H 2.201 V -1.253 H 0.314 v -0.81 H 2.291 V -2.32 H 0 Z"
               style="fill:#ffffff;fill-opacity:1;fill-rule:nonzero;stroke:none"
               id="path917" />
          </g>
          <g
             id="g919"
             transform="translate(135.6035,72.2508)"
             style="fill:#ffffff">
            <path
               d="m 0,0 c 0,0.586 0.198,0.868 0.826,0.868 h 1.202 c 0.571,0 0.728,-0.265 0.728,-0.577 V 0.093 H 2.479 v 0.105 c 0,0.395 -0.243,0.413 -0.531,0.413 h -1.09 c -0.3,0 -0.545,-0.09 -0.545,-0.493 v -0.871 c 0,-0.404 0.245,-0.494 0.545,-0.494 h 1.099 c 0.424,0 0.545,0.09 0.545,0.404 v 0.144 h 0.295 v -0.156 c 0,-0.42 -0.135,-0.648 -0.785,-0.648 H 0.826 C 0.198,-1.503 0,-1.221 0,-0.635 Z"
               style="fill:#ffffff;fill-opacity:1;fill-rule:nonzero;stroke:none"
               id="path921" />
          </g>
          <g
             id="g923"
             transform="translate(140.7588,72.8368)"
             style="fill:#ffffff">
            <path
               d="M 0,0 H -1.173 V 0.257 H 1.486 V 0 H 0.313 V -2.063 H 0 Z"
               style="fill:#ffffff;fill-opacity:1;fill-rule:nonzero;stroke:none"
               id="path925" />
          </g>
          <path
             d="m 143.549,73.094 h 0.313 v -2.32 h -0.313 z"
             style="fill:#ffffff;fill-opacity:1;fill-rule:nonzero;stroke:none"
             id="path927" />
          <g
             id="g929"
             transform="translate(148.0332,72.369)"
             style="fill:#ffffff">
            <path
               d="M 0,0 C 0,0.403 -0.244,0.493 -0.545,0.493 H -1.817 C -2.118,0.493 -2.362,0.403 -2.362,0 v -0.871 c 0,-0.404 0.244,-0.494 0.545,-0.494 h 1.272 c 0.301,0 0.545,0.09 0.545,0.494 z m -2.676,-0.118 c 0,0.586 0.198,0.868 0.826,0.868 h 1.336 c 0.629,0 0.827,-0.282 0.827,-0.868 v -0.635 c 0,-0.586 -0.198,-0.868 -0.827,-0.868 H -1.85 c -0.628,0 -0.826,0.282 -0.826,0.868 z"
               style="fill:#ffffff;fill-opacity:1;fill-rule:nonzero;stroke:none"
               id="path931" />
          </g>
          <g
             id="g933"
             transform="translate(149.8135,73.0936)"
             style="fill:#ffffff">
            <path
               d="M 0,0 H 0.467 L 2.592,-2.038 V 0 H 2.905 V -2.32 H 2.438 L 0.313,-0.282 V -2.32 H 0 Z"
               style="fill:#ffffff;fill-opacity:1;fill-rule:nonzero;stroke:none"
               id="path935" />
          </g>
        </g>
      </g>
    </g>
  </g>
</svg>
